<svg width="20" height="18" viewBox="0 0 20 18" fill="none" xmlns="http://www.w3.org/2000/svg">
<path d="M2.74399 8.79069C2.31564 8.36223 1.98384 7.84714 1.77086 7.27995C1.55787 6.71277 1.46861 6.1066 1.50907 5.50209C1.54952 4.89759 1.71875 4.30872 2.00542 3.77497C2.29208 3.24122 2.68955 2.77493 3.17118 2.40737C3.6528 2.0398 4.20744 1.77946 4.79792 1.6438C5.38839 1.50813 6.00104 1.50028 6.5948 1.62077C7.18856 1.74126 7.74969 1.98731 8.24057 2.34241C8.73145 2.69751 9.14074 3.15347 9.44099 3.67969H10.559C10.8592 3.15347 11.2685 2.69751 11.7594 2.34241C12.2503 1.98731 12.8114 1.74126 13.4052 1.62077C13.9989 1.50028 14.6116 1.50813 15.2021 1.6438C15.7925 1.77946 16.3472 2.0398 16.8288 2.40737C17.3104 2.77493 17.7079 3.24122 17.9946 3.77497C18.2812 4.30872 18.4505 4.89759 18.4909 5.50209C18.5314 6.1066 18.4421 6.71277 18.2291 7.27995C18.0161 7.84714 17.6843 8.36223 17.256 8.79069L9.99999 16.0487L2.74399 8.79169V8.79069ZM17.962 9.50069C18.4741 8.98852 18.8747 8.37591 19.1386 7.70139C19.4025 7.02688 19.524 6.30506 19.4954 5.58132C19.4669 4.85758 19.2888 4.14759 18.9725 3.496C18.6563 2.8444 18.2086 2.2653 17.6576 1.79511C17.1067 1.32492 16.4644 0.973819 15.7712 0.763886C15.078 0.553953 14.3488 0.489729 13.6296 0.575254C12.9104 0.66078 12.2166 0.894204 11.592 1.26085C10.9673 1.62749 10.4253 2.11942 9.99999 2.70569C9.57467 2.11942 9.03265 1.62749 8.408 1.26085C7.78335 0.894204 7.08959 0.66078 6.37036 0.575254C5.65113 0.489729 4.92198 0.553953 4.22877 0.763886C3.53556 0.973819 2.89328 1.32492 2.34234 1.79511C1.7914 2.2653 1.34371 2.8444 1.02743 3.496C0.711149 4.14759 0.533117 4.85758 0.50453 5.58132C0.475944 6.30506 0.597422 7.02688 0.861326 7.70139C1.12523 8.37591 1.52585 8.98852 2.03799 9.50069L9.99999 17.4617L17.962 9.50169V9.50069Z" fill="#FAF6F2"/>
<path fill-rule="evenodd" clip-rule="evenodd" d="M3.04399 8.66744L9.99997 15.6244L17.0438 8.57859L17.256 8.79069L9.99999 16.0487L2.74399 8.79169V8.79069C2.31564 8.36223 1.98384 7.84714 1.77086 7.27995C1.55787 6.71277 1.46861 6.1066 1.50907 5.50209C1.54952 4.89759 1.71875 4.30872 2.00542 3.77497C2.29208 3.24122 2.68955 2.77493 3.17118 2.40737C3.6528 2.0398 4.20744 1.77946 4.79792 1.6438C5.38839 1.50813 6.00104 1.50028 6.5948 1.62077C7.18856 1.74126 7.74969 1.98731 8.24057 2.34241C8.73145 2.69751 9.14074 3.15347 9.44099 3.67969H10.559C10.8592 3.15347 11.2685 2.69751 11.7594 2.34241C12.2503 1.98731 12.8114 1.74126 13.4052 1.62077C13.9989 1.50028 14.6116 1.50813 15.2021 1.6438C15.7925 1.77946 16.3472 2.0398 16.8288 2.40737C17.3104 2.77493 17.7079 3.24122 17.9946 3.77497C18.2812 4.30872 18.4505 4.89759 18.4909 5.50209C18.5314 6.1066 18.4421 6.71277 18.2291 7.27995C18.0161 7.84714 17.6843 8.36223 17.256 8.79069L17.0438 8.57859C17.4419 8.18037 17.7503 7.70164 17.9483 7.17449C18.1462 6.64734 18.2292 6.08396 18.1916 5.52212C18.154 4.96029 17.9967 4.41299 17.7303 3.91692C17.4638 3.42084 17.0944 2.98747 16.6468 2.64585C16.1992 2.30423 15.6837 2.06227 15.1349 1.93618C14.5861 1.81009 14.0167 1.8028 13.4648 1.91478C12.913 2.02677 12.3915 2.25544 11.9352 2.58548C11.479 2.91552 11.0986 3.33928 10.8196 3.82836L10.7332 3.97969H9.26676L9.18042 3.82836C8.90136 3.33928 8.52097 2.91552 8.06473 2.58548C7.6085 2.25544 7.08698 2.02677 6.53514 1.91478C5.98329 1.8028 5.41389 1.81009 4.86509 1.93618C4.3163 2.06227 3.80081 2.30423 3.35318 2.64585C2.90556 2.98747 2.53614 3.42084 2.26971 3.91692C2.00328 4.41299 1.846 4.96029 1.8084 5.52212C1.7708 6.08396 1.85375 6.64734 2.05171 7.17449C2.24966 7.70164 2.55803 8.18037 2.95615 8.57859L3.04399 8.66744ZM2.03799 9.50069C1.52585 8.98852 1.12523 8.37591 0.861326 7.70139C0.597422 7.02688 0.475944 6.30506 0.50453 5.58132C0.533117 4.85758 0.711149 4.14759 1.02743 3.496C1.34371 2.8444 1.7914 2.2653 2.34234 1.79511C2.89328 1.32492 3.53556 0.973819 4.22877 0.763886C4.92198 0.553953 5.65113 0.489729 6.37036 0.575254C7.08959 0.66078 7.78335 0.894204 8.408 1.26085C8.94283 1.57477 9.41708 1.98054 9.80938 2.45873C9.87526 2.53904 9.93883 2.62139 9.99999 2.70569C10.0611 2.62139 10.1247 2.53904 10.1906 2.45873C10.5829 1.98054 11.0571 1.57477 11.592 1.26085C12.2166 0.894204 12.9104 0.66078 13.6296 0.575254C14.3488 0.489729 15.078 0.553953 15.7712 0.763886C16.4644 0.973819 17.1067 1.32492 17.6576 1.79511C18.2086 2.2653 18.6563 2.8444 18.9725 3.496C19.2888 4.14759 19.4669 4.85758 19.4954 5.58132C19.524 6.30506 19.4025 7.02688 19.1386 7.70139C18.8747 8.37591 18.4741 8.98852 17.962 9.50069V9.50169L9.99999 17.4617L2.03799 9.50069ZM18.262 9.62294V9.62598L9.99997 17.8859L1.82587 9.71284C1.28446 9.17139 0.860931 8.52376 0.581948 7.8107C0.302964 7.09764 0.174544 6.33457 0.204764 5.56948C0.234984 4.80439 0.42319 4.05382 0.757545 3.36499C1.0919 2.67616 1.56517 2.06397 2.14759 1.56691C2.73002 1.06986 3.40899 0.698693 4.14181 0.476764C4.87463 0.254834 5.64545 0.186941 6.40578 0.277353C7.16612 0.367766 7.89952 0.614528 8.55986 1.00212C9.1066 1.32303 9.59346 1.73474 9.99999 2.21867C10.4065 1.73474 10.8934 1.32303 11.4401 1.00212C12.1005 0.614528 12.8339 0.367766 13.5942 0.277353C14.3545 0.186941 15.1253 0.254834 15.8582 0.476764C16.591 0.698693 17.27 1.06986 17.8524 1.56691C18.4348 2.06397 18.9081 2.67616 19.2424 3.36499C19.5768 4.05382 19.765 4.80439 19.7952 5.56948C19.8254 6.33457 19.697 7.09764 19.418 7.8107C19.1543 8.48472 18.7615 9.10026 18.262 9.62294Z" fill="#FAF6F2"/>
</svg>
